<?xml version="1.0" encoding="utf-8"?>
<!-- Generator: Adobe Illustrator 15.1.0, SVG Export Plug-In . SVG Version: 6.00 Build 0)  -->
<!DOCTYPE svg PUBLIC "-//W3C//DTD SVG 1.1//EN" "http://www.w3.org/Graphics/SVG/1.1/DTD/svg11.dtd">
<svg version="1.1" id="Layer_1" xmlns="http://www.w3.org/2000/svg" xmlns:xlink="http://www.w3.org/1999/xlink" x="0px" y="0px"
	 width="149.167px" height="172.243px" viewBox="0 0 149.167 172.243" enable-background="new 0 0 149.167 172.243"
	 xml:space="preserve">
<g id="logo_petit">
	<path fill="#585858" d="M23.259,111.697c0,0,4.239-1.024,17.778-7.508l88.466-43.716c0,0,21.094-9.091,18.946-11.368
		c-1.281-2.715-20.178,8.923-20.178,8.923l-0.022,0.003L39.954,102.21l0.215-0.114C40.169,102.096,25.944,109.608,23.259,111.697z
		 M132.86,56.29c2.114-1.136,11.611-6.038,11.611-6.038s1.69-0.91,2.064,0.123c0,0,0.305,0.525-1.152,1.292
		c0,0-9.937,5.221-11.762,6.109c0,0-0.564,0.349-1.078-0.29l-0.062-0.126C132.223,56.681,132.86,56.29,132.86,56.29z"/>
	<g>
		<path fill="#585858" d="M126.038,121.786l-17.1-8.416c-3.422-1.598-10.116-5.812-10.116-5.812L52.774,85.892
			c0.685-1.542-0.292-1.954-0.292-1.954c-1.303-0.784-1.957,0.905-1.957,0.905l-8.921-4.647c0,0-0.26,0.915-1.728,3.706l9.295,3.845
			c0,0-0.874,1.588,0.562,2.083c0,0,0.947,0.482,1.69-1.032l46.19,21.348c0,0,7.532,2.419,10.955,4.014l17.44,7.688"/>
		<g>
			<path fill="#585858" d="M0.472,63.19c0,0-2.379,4.555,3.544,6.857c0,0,9.855,2.704,15.537,5.233c0,0,11.982,4.54,12.817,5.032
				c0,0,3.509,1.418,4.738,2.583c0,0-1.038,1.935,0.045,2.632c0,0,1.376,1.071,2.722-1.626l1.728-3.706
				c1.201-2.766-0.502-3.128-0.502-3.128c-1.231-0.384-2.049,1.654-2.049,1.654c-1.682-0.192-5.025-1.968-5.025-1.968
				c-0.914-0.323-12.091-6.583-12.091-6.583c-5.59-2.727-13.997-8.539-13.997-8.539c-5.571-3.057-7.527,1.692-7.527,1.692"/>
		</g>
	</g>
</g>
<g id="Calque_2">
</g>
</svg>
